<svg height="512" viewBox="0 0 40 58" width="512" xmlns="http://www.w3.org/2000/svg"><g id="Page-1" fill="none" fill-rule="evenodd"><g id="008---Gaming-Chair" fill-rule="nonzero"><path id="Rectangle-path" d="m17 44h6v7h-6z" fill="#7f8c8d"/><path id="Shape" d="m29 39c4.3-3.543 2-5.42 2-12 0-6 4-7 4-12s-4-4-7-8l-1.79-2.74c-1.51-2.56-2.44-4.26-6.21-4.26s-4.7 1.7-6.21 4.26l-1.79 2.74c-3 4-7 3-7 8s4 6 4 12c0 6.275-1.627 8.764 2 12z" fill="#2c3e50"/><path id="Rectangle-path" d="m30.901 31h10.198v2h-10.198z" fill="#2c3e50" transform="matrix(.196 -.981 .981 .196 -2.445 61.018)"/><path id="Shape" d="m39 28h-4c-.5522847 0-1-.4477153-1-1s.4477153-1 1-1h4c.5522847 0 1 .4477153 1 1s-.4477153 1-1 1z" fill="#3f5c6c"/><path id="Shape" d="m30 38s-.1-2.95 1.1-4.13c.4908861-.5332693 1.1755649-.8467801 1.9-.87 0 0 3 0 3 4-.1289393 3.9939913-3.0584696 7.3420259-7 8z" fill="#35495e"/><path id="Rectangle-path" d="m3 26.901h2v10.198h-2z" fill="#2c3e50" transform="matrix(.981 -.196 .196 .981 -6.198 1.406)"/><path id="Shape" d="m5 28h-4c-.55228475 0-1-.4477153-1-1s.44771525-1 1-1h4c.55228475 0 1 .4477153 1 1s-.44771525 1-1 1z" fill="#3f5c6c"/><path id="Shape" d="m10 38s.1-2.95-1.1-4.13c-.49088612-.5332693-1.17556493-.8467801-1.9-.87 0 0-3 0-3 4 .1289393 3.9939913 3.05846963 7.3420259 7 8z" fill="#35495e"/><path id="Shape" d="m30 38v-2c-.0032948-1.1032019-.8967981-1.9967052-2-2h-16c-1.1032019.0032948-1.9967052.8967981-2 2v2l10 2z" fill="#e64c3c"/><path id="Shape" d="m20 45h9c1-1 1-7 1-7-3-1-7 1-10 1s-7-2-10-1c0 0 0 6 1 7z" fill="#3f5c6c"/><rect id="Rectangle-path" fill="#3f5c6c" height="10" rx="3" width="16" x="12" y="4"/><path id="Shape" d="m26 34c0-13-3-20-3-20h-6s-3 7-3 20z" fill="#c03a2b"/><path id="Shape" d="m9 50h22c1.1045695 0 2 .8954305 2 2v1c0 .5522847-.4477153 1-1 1h-24c-.55228475 0-1-.4477153-1-1v-1c0-1.1045695.8954305-2 2-2z" fill="#95a5a5"/><g fill="#7f8c8d"><circle id="Oval" cx="9" cy="56" r="2"/><circle id="Oval" cx="20" cy="56" r="2"/><circle id="Oval" cx="31" cy="56" r="2"/></g></g></g></svg>