<svg height="512pt" viewBox="0 0 512 512" width="512pt" xmlns="http://www.w3.org/2000/svg"><path d="m161.003906 398.078125h189.992188v98.792969h-189.992188zm0 0" fill="#575f70"/><path d="m256.023438 398.078125h94.972656v98.792969h-94.972656zm0 0" fill="#32394b"/><path d="m15 74.667969h482v282.410156h-482zm0 0" fill="#e0f4ff"/><path d="m256.023438 74.667969h240.976562v282.410156h-240.976562zm0 0" fill="#bbdcff"/><path d="m512 59.667969h-512v368.40625h512zm-482.003906 282.410156v-252.414063h452.007812v252.414063zm0 0" fill="#7c8394"/><path d="m512 59.667969h-255.976562v29.996093h225.980468v252.414063h-225.980468v85.996094h255.976562zm0 0" fill="#575f70"/><path d="m106.34375 481.871094h299.308594v30h-299.308594zm0 0" fill="#7c8394"/><path d="m256.023438 481.871094h149.628906v30h-149.628906zm0 0" fill="#575f70"/><path d="m440.078125 185.433594-7.675781-116.34375c-2.554688-38.742188-34.96875-69.089844-73.796875-69.089844-14.246094 0-28.058594 4.042969-39.945313 11.695312-18.402344 11.847657-38.996094 18.109376-59.550781 18.109376h-6.21875c-20.554687 0-41.148437-6.261719-59.550781-18.109376-11.886719-7.652343-25.699219-11.695312-39.945313-11.695312-38.828125 0-71.242187 30.347656-73.796875 69.089844l-7.675781 116.34375c-1.164063 17.652344 5.101563 35.183594 17.191406 48.09375 12.089844 12.914062 29.171875 20.320312 46.859375 20.320312 27.238282 0 51.582032-17.269531 60.582032-42.980468l7.953124-22.714844h102.980469l7.953125 22.714844c9 25.710937 33.347656 42.980468 60.582032 42.980468 17.691406 0 34.769531-7.40625 46.859374-20.320312 12.09375-12.914063 18.359376-30.441406 17.195313-48.09375zm0 0" fill="#575f70"/><path d="m440.078125 185.433594-7.675781-116.34375c-2.554688-38.742188-34.96875-69.089844-73.796875-69.089844-14.246094 0-28.058594 4.042969-39.945313 11.695312-18.402344 11.847657-38.996094 18.109376-59.550781 18.109376h-3.085937v158.347656h51.46875l7.949218 22.714844c9 25.707031 33.347656 42.980468 60.585938 42.980468 17.6875 0 34.769531-7.40625 46.859375-20.320312 12.089843-12.914063 18.355469-30.441406 17.191406-48.09375zm0 0" fill="#32394b"/><path d="m190.519531 85.929688h-11.496093v-11.5h-30v11.5h-11.496094v29.996093h11.496094v11.5h30v-11.5h11.496093zm0 0" fill="#cafa5c"/><path d="m346.273438 129.675781c-15.851563 0-28.75-12.898437-28.75-28.75 0-15.851562 12.898437-28.746093 28.75-28.746093 15.851562 0 28.746093 12.894531 28.746093 28.746093 0 15.851563-12.894531 28.75-28.746093 28.75zm0 0" fill="#cafa5c"/><path d="m346.273438 129.675781c-15.851563 0-28.75-12.898437-28.75-28.75 0-15.851562 12.898437-28.746093 28.75-28.746093 15.851562 0 28.746093 12.894531 28.746093 28.746093 0 15.851563-12.894531 28.75-28.746093 28.75zm0 0" fill="#ff6d1a"/></svg>