<svg height="512" viewBox="0 0 40 58" width="512" xmlns="http://www.w3.org/2000/svg"><g id="Page-1" fill="none" fill-rule="evenodd"><g id="026---Gaming-Mouse" fill-rule="nonzero"><path id="Shape" d="m22 4v-3c0-.55228475-.4477153-1-1-1h-2c-.5522847 0-1 .44771525-1 1v3z" fill="#7f8c8d"/><path id="Shape" d="m36.07 33 3.754 8.348c.1977333.433479.2300997.9243096.091 1.38-.678 2.202-3.215 9.79-9.915 12.272h-20c-6.7-2.482-9.237-10.07-9.915-12.272-.13909967-.4556904-.1067333-.946521.091-1.38l3.754-8.348z" fill="#c03a2b"/><path id="Shape" d="m36 22v11l-2.8 4.674c-.1287922.2151587-.2159739.4526186-.257.7l-.943 5.626h-24l-.938-5.625c-.04102611-.2473814-.12820781-.4848413-.257-.7l-2.805-4.675v-11z" fill="#e64c3c"/><path id="Shape" d="m29.48 40.65 2.52 3.35-2 11s-5 3-10 3-10-3-10-3l-2-11 2.52-3.35c.3061771-.4175535.4420328-.9359502.38-1.45l-1.8-12.39c-.06375939-.5177548-.32535002-.990768-.73-1.32l-4.37-3.49c.17020424-4.806617 1.18571885-9.5456852 3-14 2-3 8-4 11-4h4c3 0 9 1 11 4 1.8142812 4.4543148 2.8297958 9.193383 3 14l-4.37 3.49c-.40465.329232-.6662406.8022452-.73 1.32l-1.8 12.39c-.0620328.5140498.0738229 1.0324465.38 1.45z" fill="#95a5a5"/><path id="Shape" d="m22.05 22c-.0314723.1547361-.0482137.3121059-.05.47v6.53c-.5389934.5436002-1.2417238.8949654-2 1-.7582762-.1050346-1.4610066-.4563998-2-1v-6.53c-.0017863-.1578941-.0185277-.3152639-.05-.47z" fill="#e64c3c"/><path id="Rectangle-path" d="m19 4h2v8h-2z" fill="#7f8c8d"/><path id="Shape" d="m23 13v6.53c.0006263.3090143-.0713035.6138597-.21.89l-.58 1.16c-.0663212.1347011-.1198882.2753144-.16.42h-4.1c-.0401118-.1446856-.0936788-.2852989-.16-.42l-.58-1.16c-.1386965-.2761403-.2106263-.5809857-.21-.89v-6.53s-.0000041-2 3-2 3 2 3 2z" fill="#547580"/></g></g></svg>